<mxfile host="app.diagrams.net" agent="Mozilla/5.0 (Windows NT 10.0; Win64; x64) AppleWebKit/537.36 (KHTML, like Gecko) Chrome/134.0.0.0 Safari/537.36" version="26.2.8">
  <diagram id="C5RBs43oDa-KdzZeNtuy" name="Page-1">
    <mxGraphModel grid="1" page="1" gridSize="10" guides="1" tooltips="1" connect="1" arrows="1" fold="1" pageScale="1" pageWidth="827" pageHeight="1169" math="0" shadow="0">
      <root>
        <mxCell id="WIyWlLk6GJQsqaUBKTNV-0" />
        <mxCell id="WIyWlLk6GJQsqaUBKTNV-1" parent="WIyWlLk6GJQsqaUBKTNV-0" />
        <mxCell id="WIyWlLk6GJQsqaUBKTNV-2" value="" style="rounded=0;html=1;jettySize=auto;orthogonalLoop=1;fontSize=14;endArrow=block;endFill=0;endSize=8;strokeWidth=1;shadow=1;labelBackgroundColor=none;edgeStyle=orthogonalEdgeStyle;fillColor=#dae8fc;strokeColor=#6c8ebf;gradientColor=#7ea6e0;fontStyle=1;arcSize=14;" edge="1" parent="WIyWlLk6GJQsqaUBKTNV-1" source="WIyWlLk6GJQsqaUBKTNV-3">
          <mxGeometry relative="1" as="geometry">
            <mxPoint x="220" y="180" as="targetPoint" />
          </mxGeometry>
        </mxCell>
        <mxCell id="WIyWlLk6GJQsqaUBKTNV-3" value="Data collection" style="rounded=1;whiteSpace=wrap;html=1;fontSize=14;glass=0;strokeWidth=1;shadow=1;fillColor=#dae8fc;gradientColor=#7ea6e0;strokeColor=#6c8ebf;direction=east;fontStyle=1;arcSize=14;" vertex="1" parent="WIyWlLk6GJQsqaUBKTNV-1">
          <mxGeometry x="160" y="70" width="120" height="60" as="geometry" />
        </mxCell>
        <mxCell id="WIyWlLk6GJQsqaUBKTNV-7" value="Data Preprocessing " style="rounded=1;whiteSpace=wrap;html=1;fontSize=14;glass=0;strokeWidth=1;shadow=1;fillColor=#dae8fc;strokeColor=#6c8ebf;gradientColor=#7ea6e0;direction=east;fontStyle=1;arcSize=14;" vertex="1" parent="WIyWlLk6GJQsqaUBKTNV-1">
          <mxGeometry x="160" y="170" width="120" height="60" as="geometry" />
        </mxCell>
        <mxCell id="WIyWlLk6GJQsqaUBKTNV-8" value="" style="rounded=0;html=1;jettySize=auto;orthogonalLoop=1;fontSize=14;endArrow=block;endFill=0;endSize=8;strokeWidth=1;shadow=1;labelBackgroundColor=none;edgeStyle=orthogonalEdgeStyle;fillColor=#dae8fc;strokeColor=#6c8ebf;gradientColor=#7ea6e0;exitX=0.407;exitY=0.965;exitDx=0;exitDy=0;exitPerimeter=0;fontStyle=1;arcSize=14;" edge="1" parent="WIyWlLk6GJQsqaUBKTNV-1" source="WIyWlLk6GJQsqaUBKTNV-12" target="WIyWlLk6GJQsqaUBKTNV-11">
          <mxGeometry x="0.3333" y="20" relative="1" as="geometry">
            <mxPoint as="offset" />
            <mxPoint x="220" y="370" as="sourcePoint" />
            <Array as="points">
              <mxPoint x="220" y="309" />
            </Array>
          </mxGeometry>
        </mxCell>
        <mxCell id="CSQeETa129WoFsyYdNaL-13" style="edgeStyle=orthogonalEdgeStyle;rounded=0;orthogonalLoop=1;jettySize=auto;html=1;exitX=1;exitY=0.5;exitDx=0;exitDy=0;entryX=0;entryY=0.5;entryDx=0;entryDy=0;shadow=1;fontStyle=1;fontSize=14;fillColor=#dae8fc;gradientColor=#7ea6e0;strokeColor=#6c8ebf;arcSize=14;" edge="1" parent="WIyWlLk6GJQsqaUBKTNV-1" source="WIyWlLk6GJQsqaUBKTNV-11" target="CSQeETa129WoFsyYdNaL-12">
          <mxGeometry relative="1" as="geometry" />
        </mxCell>
        <mxCell id="CSQeETa129WoFsyYdNaL-22" value="" style="edgeStyle=orthogonalEdgeStyle;rounded=0;orthogonalLoop=1;jettySize=auto;html=1;fillColor=#dae8fc;gradientColor=#7ea6e0;strokeColor=#6c8ebf;" edge="1" parent="WIyWlLk6GJQsqaUBKTNV-1" source="WIyWlLk6GJQsqaUBKTNV-11" target="sP3BBG8y5PPSh-F-Dlop-7">
          <mxGeometry relative="1" as="geometry" />
        </mxCell>
        <mxCell id="WIyWlLk6GJQsqaUBKTNV-11" value="Yolo&amp;nbsp;&lt;div&gt;CNN&lt;/div&gt;&lt;div&gt;Resnet&lt;/div&gt;&lt;div&gt;Random forest&lt;/div&gt;" style="rounded=1;whiteSpace=wrap;html=1;fontSize=14;glass=0;strokeWidth=1;shadow=1;fillColor=#dae8fc;strokeColor=#6c8ebf;gradientColor=#7ea6e0;direction=east;fontStyle=1;arcSize=14;" vertex="1" parent="WIyWlLk6GJQsqaUBKTNV-1">
          <mxGeometry x="160" y="360" width="120" height="80" as="geometry" />
        </mxCell>
        <mxCell id="WIyWlLk6GJQsqaUBKTNV-12" value="Feature Extraction" style="rounded=1;whiteSpace=wrap;html=1;fontSize=14;glass=0;strokeWidth=1;shadow=1;fillColor=#dae8fc;strokeColor=#6c8ebf;gradientColor=#7ea6e0;direction=east;fontStyle=1;arcSize=14;" vertex="1" parent="WIyWlLk6GJQsqaUBKTNV-1">
          <mxGeometry x="160" y="270" width="120" height="60" as="geometry" />
        </mxCell>
        <mxCell id="sP3BBG8y5PPSh-F-Dlop-4" value="" style="rounded=0;html=1;jettySize=auto;orthogonalLoop=1;fontSize=14;endArrow=block;endFill=0;endSize=8;strokeWidth=1;shadow=1;labelBackgroundColor=none;edgeStyle=orthogonalEdgeStyle;fillColor=#dae8fc;strokeColor=#6c8ebf;gradientColor=#7ea6e0;entryX=0.5;entryY=0;entryDx=0;entryDy=0;fontStyle=1;arcSize=14;" edge="1" parent="WIyWlLk6GJQsqaUBKTNV-1" source="WIyWlLk6GJQsqaUBKTNV-7" target="WIyWlLk6GJQsqaUBKTNV-12">
          <mxGeometry relative="1" as="geometry">
            <mxPoint x="210" y="240" as="sourcePoint" />
            <mxPoint x="230" y="180" as="targetPoint" />
          </mxGeometry>
        </mxCell>
        <mxCell id="CSQeETa129WoFsyYdNaL-18" value="" style="edgeStyle=orthogonalEdgeStyle;rounded=0;orthogonalLoop=1;jettySize=auto;html=1;shadow=1;fontStyle=1;fontSize=14;fillColor=#dae8fc;gradientColor=#7ea6e0;strokeColor=#6c8ebf;arcSize=14;" edge="1" parent="WIyWlLk6GJQsqaUBKTNV-1" source="sP3BBG8y5PPSh-F-Dlop-7" target="CSQeETa129WoFsyYdNaL-17">
          <mxGeometry relative="1" as="geometry" />
        </mxCell>
        <mxCell id="sP3BBG8y5PPSh-F-Dlop-7" value="  Model Deployment " style="rounded=1;whiteSpace=wrap;html=1;fontSize=14;glass=0;strokeWidth=1;shadow=1;fillColor=#dae8fc;strokeColor=#6c8ebf;gradientColor=#7ea6e0;direction=east;fontStyle=1;arcSize=14;" vertex="1" parent="WIyWlLk6GJQsqaUBKTNV-1">
          <mxGeometry x="160" y="480" width="120" height="60" as="geometry" />
        </mxCell>
        <mxCell id="CSQeETa129WoFsyYdNaL-1" value="" style="edgeStyle=orthogonalEdgeStyle;rounded=0;orthogonalLoop=1;jettySize=auto;html=1;fillColor=#dae8fc;strokeColor=#6c8ebf;gradientColor=#7ea6e0;shadow=1;fontStyle=1;fontSize=14;arcSize=14;" edge="1" parent="WIyWlLk6GJQsqaUBKTNV-1" source="CSQeETa129WoFsyYdNaL-0" target="WIyWlLk6GJQsqaUBKTNV-7">
          <mxGeometry relative="1" as="geometry" />
        </mxCell>
        <mxCell id="CSQeETa129WoFsyYdNaL-0" value="Satellite images" style="rounded=1;whiteSpace=wrap;html=1;fillColor=#dae8fc;gradientColor=#7ea6e0;strokeColor=#6c8ebf;shadow=1;direction=east;fontStyle=1;fontSize=14;arcSize=14;" vertex="1" parent="WIyWlLk6GJQsqaUBKTNV-1">
          <mxGeometry y="175" width="110" height="50" as="geometry" />
        </mxCell>
        <mxCell id="CSQeETa129WoFsyYdNaL-12" value="&amp;nbsp;Model training&lt;div&gt;&lt;br&gt;&lt;div&gt;Model Evaluation&amp;nbsp;&lt;/div&gt;&lt;/div&gt;" style="rounded=1;whiteSpace=wrap;html=1;fillColor=#dae8fc;gradientColor=#7ea6e0;strokeColor=#6c8ebf;shadow=1;direction=east;fontStyle=1;fontSize=14;arcSize=14;" vertex="1" parent="WIyWlLk6GJQsqaUBKTNV-1">
          <mxGeometry x="390" y="355" width="160" height="90" as="geometry" />
        </mxCell>
        <mxCell id="CSQeETa129WoFsyYdNaL-15" value="" style="group;fillColor=none;gradientColor=#7ea6e0;strokeColor=#6c8ebf;shadow=1;direction=east;fontStyle=1;fontSize=14;arcSize=14;" connectable="0" vertex="1" parent="WIyWlLk6GJQsqaUBKTNV-1">
          <mxGeometry x="350" y="270" width="240" height="50" as="geometry" />
        </mxCell>
        <mxCell id="CSQeETa129WoFsyYdNaL-5" value="" style="edgeStyle=orthogonalEdgeStyle;rounded=0;orthogonalLoop=1;jettySize=auto;html=1;fillColor=#dae8fc;gradientColor=#7ea6e0;strokeColor=#6c8ebf;shadow=1;fontStyle=1;fontSize=14;arcSize=14;" edge="1" parent="CSQeETa129WoFsyYdNaL-15" source="CSQeETa129WoFsyYdNaL-2" target="CSQeETa129WoFsyYdNaL-3">
          <mxGeometry relative="1" as="geometry" />
        </mxCell>
        <mxCell id="CSQeETa129WoFsyYdNaL-8" style="edgeStyle=orthogonalEdgeStyle;rounded=0;orthogonalLoop=1;jettySize=auto;html=1;exitX=0.5;exitY=0;exitDx=0;exitDy=0;fillColor=#dae8fc;gradientColor=#7ea6e0;strokeColor=#6c8ebf;shadow=1;entryX=0.5;entryY=0;entryDx=0;entryDy=0;fontStyle=1;fontSize=14;arcSize=14;" edge="1" parent="CSQeETa129WoFsyYdNaL-15" source="CSQeETa129WoFsyYdNaL-2">
          <mxGeometry relative="1" as="geometry">
            <mxPoint x="120" y="20" as="targetPoint" />
            <Array as="points">
              <mxPoint x="30" />
              <mxPoint x="120" />
            </Array>
          </mxGeometry>
        </mxCell>
        <mxCell id="CSQeETa129WoFsyYdNaL-2" value="Train" style="rounded=1;whiteSpace=wrap;html=1;fillColor=#dae8fc;gradientColor=#7ea6e0;strokeColor=#6c8ebf;shadow=1;direction=east;fontStyle=1;fontSize=14;arcSize=14;" vertex="1" parent="CSQeETa129WoFsyYdNaL-15">
          <mxGeometry y="20" width="60" height="30" as="geometry" />
        </mxCell>
        <mxCell id="CSQeETa129WoFsyYdNaL-6" value="" style="edgeStyle=orthogonalEdgeStyle;rounded=0;orthogonalLoop=1;jettySize=auto;html=1;fillColor=#dae8fc;gradientColor=#7ea6e0;strokeColor=#6c8ebf;shadow=1;fontStyle=1;fontSize=14;arcSize=14;" edge="1" parent="CSQeETa129WoFsyYdNaL-15" source="CSQeETa129WoFsyYdNaL-3" target="CSQeETa129WoFsyYdNaL-4">
          <mxGeometry relative="1" as="geometry" />
        </mxCell>
        <mxCell id="CSQeETa129WoFsyYdNaL-11" style="edgeStyle=orthogonalEdgeStyle;rounded=0;orthogonalLoop=1;jettySize=auto;html=1;exitX=0.5;exitY=0;exitDx=0;exitDy=0;entryX=0.5;entryY=0;entryDx=0;entryDy=0;fillColor=#dae8fc;gradientColor=#7ea6e0;strokeColor=#6c8ebf;shadow=1;fontStyle=1;fontSize=14;arcSize=14;" edge="1" parent="CSQeETa129WoFsyYdNaL-15" source="CSQeETa129WoFsyYdNaL-3" target="CSQeETa129WoFsyYdNaL-4">
          <mxGeometry relative="1" as="geometry" />
        </mxCell>
        <mxCell id="CSQeETa129WoFsyYdNaL-3" value="valid" style="rounded=1;whiteSpace=wrap;html=1;fillColor=#dae8fc;gradientColor=#7ea6e0;strokeColor=#6c8ebf;shadow=1;direction=east;fontStyle=1;fontSize=14;arcSize=14;" vertex="1" parent="CSQeETa129WoFsyYdNaL-15">
          <mxGeometry x="90" y="20" width="60" height="30" as="geometry" />
        </mxCell>
        <mxCell id="CSQeETa129WoFsyYdNaL-4" value="Test" style="rounded=1;whiteSpace=wrap;html=1;fillColor=#dae8fc;gradientColor=#7ea6e0;strokeColor=#6c8ebf;shadow=1;direction=east;fontStyle=1;fontSize=14;arcSize=14;" vertex="1" parent="CSQeETa129WoFsyYdNaL-15">
          <mxGeometry x="180" y="20" width="60" height="30" as="geometry" />
        </mxCell>
        <mxCell id="CSQeETa129WoFsyYdNaL-16" value="" style="endArrow=none;html=1;rounded=0;entryX=1;entryY=0.5;entryDx=0;entryDy=0;exitX=0;exitY=0.5;exitDx=0;exitDy=0;fillColor=#dae8fc;gradientColor=#7ea6e0;strokeColor=#6c8ebf;shadow=1;fontStyle=1;fontSize=14;arcSize=14;" edge="1" parent="WIyWlLk6GJQsqaUBKTNV-1" source="CSQeETa129WoFsyYdNaL-12" target="CSQeETa129WoFsyYdNaL-12">
          <mxGeometry width="50" height="50" relative="1" as="geometry">
            <mxPoint x="350" y="400" as="sourcePoint" />
            <mxPoint x="400" y="350" as="targetPoint" />
            <Array as="points" />
          </mxGeometry>
        </mxCell>
        <mxCell id="CSQeETa129WoFsyYdNaL-20" value="" style="edgeStyle=orthogonalEdgeStyle;rounded=0;orthogonalLoop=1;jettySize=auto;html=1;shadow=1;fontStyle=1;fontSize=14;fillColor=#dae8fc;gradientColor=#7ea6e0;strokeColor=#6c8ebf;arcSize=14;" edge="1" parent="WIyWlLk6GJQsqaUBKTNV-1" source="CSQeETa129WoFsyYdNaL-17" target="CSQeETa129WoFsyYdNaL-19">
          <mxGeometry relative="1" as="geometry" />
        </mxCell>
        <mxCell id="CSQeETa129WoFsyYdNaL-17" value="Fast Api" style="whiteSpace=wrap;html=1;fillColor=#dae8fc;strokeColor=#6c8ebf;rounded=1;glass=0;strokeWidth=1;shadow=1;gradientColor=#7ea6e0;direction=east;fontStyle=1;fontSize=14;arcSize=14;" vertex="1" parent="WIyWlLk6GJQsqaUBKTNV-1">
          <mxGeometry x="160" y="580" width="120" height="60" as="geometry" />
        </mxCell>
        <mxCell id="CSQeETa129WoFsyYdNaL-19" value="Web Interface" style="whiteSpace=wrap;html=1;fillColor=#dae8fc;strokeColor=#6c8ebf;rounded=1;glass=0;strokeWidth=1;shadow=1;gradientColor=#7ea6e0;direction=east;fontStyle=1;fontSize=14;arcSize=14;" vertex="1" parent="WIyWlLk6GJQsqaUBKTNV-1">
          <mxGeometry x="160" y="670" width="120" height="60" as="geometry" />
        </mxCell>
        <mxCell id="CSQeETa129WoFsyYdNaL-14" style="edgeStyle=orthogonalEdgeStyle;rounded=0;orthogonalLoop=1;jettySize=auto;html=1;exitX=0.5;exitY=1;exitDx=0;exitDy=0;entryX=0.5;entryY=0;entryDx=0;entryDy=0;fillColor=#dae8fc;gradientColor=#7ea6e0;strokeColor=#6c8ebf;shadow=1;fontStyle=1;fontSize=14;arcSize=14;" edge="1" parent="WIyWlLk6GJQsqaUBKTNV-1" source="CSQeETa129WoFsyYdNaL-3" target="CSQeETa129WoFsyYdNaL-12">
          <mxGeometry relative="1" as="geometry" />
        </mxCell>
      </root>
    </mxGraphModel>
  </diagram>
</mxfile>
